<svg width="119" height="16" viewBox="0 0 119 16" fill="none" xmlns="http://www.w3.org/2000/svg">
<path d="M10.5114 5C10.3551 4.52178 10.1491 4.09328 9.89346 3.71449C9.64252 3.33097 9.34185 3.00426 8.99148 2.73438C8.64583 2.46449 8.25284 2.25852 7.8125 2.11648C7.37216 1.97443 6.8892 1.90341 6.36363 1.90341C5.50189 1.90341 4.71827 2.12595 4.01278 2.57102C3.30729 3.0161 2.74621 3.67188 2.32954 4.53835C1.91288 5.40483 1.70454 6.4678 1.70454 7.72727C1.70454 8.98674 1.91524 10.0497 2.33665 10.9162C2.75805 11.7827 3.3286 12.4384 4.04829 12.8835C4.76799 13.3286 5.57765 13.5511 6.47727 13.5511C7.3106 13.5511 8.04451 13.3736 8.67898 13.0185C9.31818 12.6586 9.81534 12.152 10.1705 11.4986C10.5303 10.8404 10.7102 10.0663 10.7102 9.17614L11.25 9.28977H6.875V7.72727H12.4148V9.28977C12.4148 10.4877 12.1591 11.5294 11.6477 12.4148C11.1411 13.3002 10.4403 13.9867 9.54545 14.4744C8.6553 14.9574 7.63257 15.1989 6.47727 15.1989C5.18939 15.1989 4.05776 14.8958 3.08238 14.2898C2.11174 13.6837 1.35416 12.822 0.809657 11.7045C0.269884 10.5871 -2.02656e-06 9.26136 -2.02656e-06 7.72727C-2.02656e-06 6.5767 0.153881 5.54214 0.461646 4.62358C0.774146 3.70028 1.21449 2.9143 1.78267 2.26562C2.35085 1.61695 3.0232 1.11979 3.79971 0.774148C4.57623 0.428503 5.43087 0.255681 6.36363 0.255681C7.13068 0.255681 7.84564 0.371685 8.50852 0.603693C9.17613 0.830965 9.77036 1.1553 10.2912 1.5767C10.8168 1.99337 11.2547 2.4929 11.6051 3.07528C11.9555 3.65294 12.197 4.29451 12.3295 5H10.5114ZM15.8878 15V4.09091H17.5639V15H15.8878ZM16.7401 2.27273C16.4134 2.27273 16.1316 2.16146 15.8949 1.93892C15.6629 1.71638 15.5469 1.44886 15.5469 1.13636C15.5469 0.823864 15.6629 0.556345 15.8949 0.333806C16.1316 0.111269 16.4134 0 16.7401 0C17.0668 0 17.3461 0.111269 17.5781 0.333806C17.8149 0.556345 17.9332 0.823864 17.9332 1.13636C17.9332 1.44886 17.8149 1.71638 17.5781 1.93892C17.3461 2.16146 17.0668 2.27273 16.7401 2.27273ZM25.3782 4.09091V5.51136H19.7248V4.09091H25.3782ZM21.3725 1.47727H23.0486V11.875C23.0486 12.3485 23.1173 12.7036 23.2546 12.9403C23.3967 13.1723 23.5766 13.3286 23.7944 13.4091C24.0169 13.4848 24.2513 13.5227 24.4975 13.5227C24.6822 13.5227 24.8337 13.5133 24.9521 13.4943C25.0704 13.4706 25.1651 13.4517 25.2361 13.4375L25.5771 14.9432C25.4634 14.9858 25.3048 15.0284 25.1012 15.071C24.8976 15.1184 24.6396 15.142 24.3271 15.142C23.8536 15.142 23.3896 15.0402 22.935 14.8366C22.4852 14.633 22.1111 14.3229 21.8129 13.9062C21.5193 13.4896 21.3725 12.964 21.3725 12.3295V1.47727ZM28.3611 15V0.454545H30.1225V6.93182H37.8782V0.454545H39.6396V15H37.8782V8.49432H30.1225V15H28.3611ZM49.8136 10.5398V4.09091H51.4897V15H49.8136V13.1534H49.6999C49.4442 13.7074 49.0465 14.1785 48.5067 14.5668C47.967 14.9503 47.2852 15.142 46.4613 15.142C45.7795 15.142 45.1734 14.9929 44.6431 14.6946C44.1128 14.3916 43.6961 13.937 43.3931 13.331C43.0901 12.7202 42.9386 11.9508 42.9386 11.0227V4.09091H44.6147V10.9091C44.6147 11.7045 44.8372 12.339 45.2823 12.8125C45.7321 13.286 46.305 13.5227 47.0011 13.5227C47.4177 13.5227 47.8415 13.4162 48.2724 13.2031C48.708 12.9901 49.0726 12.6634 49.3661 12.223C49.6644 11.7827 49.8136 11.2216 49.8136 10.5398ZM54.7869 15V0.454545H56.4631V5.82386H56.6051C56.7282 5.63447 56.8987 5.39299 57.1165 5.09943C57.339 4.80114 57.6562 4.53598 58.0682 4.30398C58.4848 4.06723 59.0483 3.94886 59.7585 3.94886C60.6771 3.94886 61.4867 4.1785 62.1875 4.63778C62.8883 5.09706 63.4351 5.74811 63.8281 6.59091C64.2211 7.43371 64.4176 8.42803 64.4176 9.57386C64.4176 10.7292 64.2211 11.7306 63.8281 12.5781C63.4351 13.4209 62.8906 14.0743 62.1946 14.5384C61.4986 14.9976 60.696 15.2273 59.7869 15.2273C59.0862 15.2273 58.5251 15.1113 58.1037 14.8793C57.6823 14.6425 57.358 14.375 57.1307 14.0767C56.9034 13.7737 56.7282 13.5227 56.6051 13.3239H56.4062V15H54.7869ZM56.4347 9.54545C56.4347 10.3693 56.5554 11.0961 56.7969 11.7259C57.0384 12.3509 57.3911 12.8409 57.8551 13.196C58.3191 13.5464 58.8873 13.7216 59.5597 13.7216C60.2604 13.7216 60.8452 13.5369 61.3139 13.1676C61.7874 12.7936 62.1425 12.2917 62.3793 11.6619C62.6207 11.0275 62.7415 10.322 62.7415 9.54545C62.7415 8.77841 62.6231 8.08712 62.3864 7.47159C62.1544 6.85133 61.8016 6.36127 61.3281 6.00142C60.8594 5.63684 60.2699 5.45455 59.5597 5.45455C58.8778 5.45455 58.3049 5.62737 57.8409 5.97301C57.3769 6.31392 57.0265 6.79214 56.7898 7.40767C56.553 8.01847 56.4347 8.73106 56.4347 9.54545ZM80.7884 4.09091C80.7031 3.37121 80.3575 2.8125 79.7514 2.41477C79.1454 2.01705 78.402 1.81818 77.5213 1.81818C76.8774 1.81818 76.3139 1.92235 75.831 2.13068C75.3527 2.33901 74.9787 2.62547 74.7088 2.99006C74.4437 3.35464 74.3111 3.76894 74.3111 4.23295C74.3111 4.62121 74.4034 4.95502 74.5881 5.23438C74.7775 5.509 75.0189 5.73864 75.3125 5.9233C75.6061 6.10322 75.9138 6.25237 76.2358 6.37074C76.5578 6.48437 76.8537 6.5767 77.1236 6.64773L78.6009 7.04545C78.9796 7.14489 79.401 7.2822 79.8651 7.45739C80.3338 7.63258 80.7812 7.87169 81.2074 8.17472C81.6383 8.47301 81.9934 8.85653 82.2727 9.32528C82.5521 9.79403 82.6918 10.3693 82.6918 11.0511C82.6918 11.8371 82.4858 12.5473 82.0739 13.1818C81.6667 13.8163 81.0701 14.3205 80.2841 14.6946C79.5028 15.0687 78.5535 15.2557 77.4361 15.2557C76.3944 15.2557 75.4924 15.0876 74.7301 14.7514C73.9725 14.4152 73.3759 13.9465 72.9403 13.3452C72.5095 12.7438 72.2656 12.0455 72.2088 11.25H74.027C74.0743 11.7992 74.259 12.2538 74.581 12.6136C74.9077 12.9687 75.3196 13.2339 75.8168 13.4091C76.3187 13.5795 76.8584 13.6648 77.4361 13.6648C78.1084 13.6648 78.7121 13.5559 79.2472 13.3381C79.7822 13.1155 80.206 12.8078 80.5185 12.4148C80.831 12.017 80.9872 11.553 80.9872 11.0227C80.9872 10.5398 80.8523 10.1468 80.5824 9.84375C80.3125 9.54072 79.9574 9.29451 79.517 9.10511C79.0767 8.91572 78.6009 8.75 78.0895 8.60795L76.2997 8.09659C75.1634 7.76989 74.2637 7.3035 73.6009 6.69744C72.938 6.09138 72.6065 5.2983 72.6065 4.31818C72.6065 3.50379 72.8267 2.79356 73.267 2.1875C73.7121 1.5767 74.3087 1.10322 75.0568 0.767045C75.8097 0.426136 76.6501 0.255681 77.5781 0.255681C78.5156 0.255681 79.349 0.423768 80.0781 0.759943C80.8073 1.09138 81.3849 1.54593 81.8111 2.12358C82.2419 2.70123 82.4692 3.35701 82.4929 4.09091H80.7884ZM90.1048 4.09091V5.51136H84.4513V4.09091H90.1048ZM86.0991 1.47727H87.7752V11.875C87.7752 12.3485 87.8439 12.7036 87.9812 12.9403C88.1232 13.1723 88.3031 13.3286 88.5209 13.4091C88.7435 13.4848 88.9779 13.5227 89.2241 13.5227C89.4087 13.5227 89.5602 13.5133 89.6786 13.4943C89.797 13.4706 89.8917 13.4517 89.9627 13.4375L90.3036 14.9432C90.19 14.9858 90.0314 15.0284 89.8278 15.071C89.6242 15.1184 89.3661 15.142 89.0536 15.142C88.5801 15.142 88.1161 15.0402 87.6616 14.8366C87.2118 14.633 86.8377 14.3229 86.5394 13.9062C86.2459 13.4896 86.0991 12.964 86.0991 12.3295V1.47727ZM95.8363 15.2557C95.145 15.2557 94.5176 15.1255 93.9542 14.8651C93.3907 14.5999 92.9433 14.2188 92.6119 13.7216C92.2804 13.2197 92.1147 12.6136 92.1147 11.9034C92.1147 11.2784 92.2378 10.7718 92.484 10.3835C92.7302 9.99053 93.0593 9.68276 93.4712 9.46023C93.8832 9.23769 94.3377 9.07197 94.8349 8.96307C95.3368 8.84943 95.841 8.75947 96.3477 8.69318C97.0105 8.60795 97.5479 8.54403 97.9599 8.50142C98.3765 8.45407 98.6796 8.37595 98.869 8.26705C99.0631 8.15814 99.1602 7.96875 99.1602 7.69886V7.64205C99.1602 6.94129 98.9684 6.39678 98.5849 6.00852C98.2061 5.62027 97.6308 5.42614 96.859 5.42614C96.0588 5.42614 95.4315 5.60133 94.9769 5.9517C94.5224 6.30208 94.2028 6.67614 94.0181 7.07386L92.4272 6.50568C92.7113 5.8428 93.0901 5.3267 93.5636 4.95739C94.0418 4.58333 94.5626 4.32292 95.1261 4.17614C95.6942 4.02462 96.253 3.94886 96.8022 3.94886C97.1526 3.94886 97.555 3.99148 98.0096 4.0767C98.4689 4.1572 98.9116 4.32528 99.3377 4.58097C99.7686 4.83665 100.126 5.22254 100.41 5.73864C100.694 6.25473 100.836 6.94602 100.836 7.8125V15H99.1602V13.5227H99.0749C98.9613 13.7595 98.7719 14.0128 98.5067 14.2827C98.2416 14.5526 97.8888 14.7822 97.4485 14.9716C97.0082 15.161 96.4708 15.2557 95.8363 15.2557ZM96.092 13.75C96.7549 13.75 97.3136 13.6198 97.7681 13.3594C98.2274 13.099 98.573 12.7628 98.805 12.3509C99.0418 11.9389 99.1602 11.5057 99.1602 11.0511V9.51705C99.0891 9.60227 98.9329 9.6804 98.6914 9.75142C98.4547 9.81771 98.18 9.87689 97.8675 9.92898C97.5598 9.97633 97.2591 10.0189 96.9656 10.0568C96.6767 10.09 96.4424 10.1184 96.2624 10.142C95.8268 10.1989 95.4196 10.2912 95.0408 10.419C94.6668 10.5421 94.3638 10.7292 94.1317 10.9801C93.9045 11.2263 93.7908 11.5625 93.7908 11.9886C93.7908 12.571 94.0063 13.0114 94.4371 13.3097C94.8727 13.6032 95.4244 13.75 96.092 13.75ZM108.64 4.09091V5.51136H102.987V4.09091H108.64ZM104.634 1.47727H106.31V11.875C106.31 12.3485 106.379 12.7036 106.516 12.9403C106.658 13.1723 106.838 13.3286 107.056 13.4091C107.279 13.4848 107.513 13.5227 107.759 13.5227C107.944 13.5227 108.095 13.5133 108.214 13.4943C108.332 13.4706 108.427 13.4517 108.498 13.4375L108.839 14.9432C108.725 14.9858 108.567 15.0284 108.363 15.071C108.159 15.1184 107.901 15.142 107.589 15.142C107.115 15.142 106.651 15.0402 106.197 14.8366C105.747 14.633 105.373 14.3229 105.075 13.9062C104.781 13.4896 104.634 12.964 104.634 12.3295V1.47727ZM118.693 6.53409L117.187 6.96023C117.093 6.70928 116.953 6.46544 116.768 6.22869C116.589 5.98722 116.342 5.78835 116.03 5.6321C115.717 5.47585 115.317 5.39773 114.83 5.39773C114.162 5.39773 113.606 5.55161 113.161 5.85938C112.72 6.16241 112.5 6.5483 112.5 7.01705C112.5 7.43371 112.652 7.76278 112.955 8.00426C113.258 8.24574 113.731 8.44697 114.375 8.60795L115.994 9.00568C116.97 9.24242 117.696 9.60464 118.175 10.0923C118.653 10.5753 118.892 11.1979 118.892 11.9602C118.892 12.5852 118.712 13.1439 118.352 13.6364C117.997 14.1288 117.5 14.517 116.861 14.8011C116.222 15.0852 115.478 15.2273 114.631 15.2273C113.518 15.2273 112.597 14.9858 111.868 14.5028C111.139 14.0199 110.677 13.3144 110.483 12.3864L112.074 11.9886C112.225 12.5758 112.512 13.0161 112.933 13.3097C113.359 13.6032 113.916 13.75 114.602 13.75C115.384 13.75 116.004 13.5843 116.463 13.2528C116.927 12.9167 117.159 12.5142 117.159 12.0455C117.159 11.6667 117.027 11.3494 116.761 11.0938C116.496 10.8333 116.089 10.6392 115.54 10.5114L113.722 10.0852C112.723 9.84848 111.989 9.48153 111.52 8.98438C111.056 8.48248 110.824 7.85511 110.824 7.10227C110.824 6.48674 110.997 5.94223 111.342 5.46875C111.693 4.99527 112.169 4.62358 112.77 4.35369C113.376 4.08381 114.062 3.94886 114.83 3.94886C115.909 3.94886 116.757 4.18561 117.372 4.65909C117.992 5.13258 118.433 5.75758 118.693 6.53409Z" fill="#7AA2F7"/>
</svg>
