<svg width="29" height="13" viewBox="0 0 29 13" fill="none" xmlns="http://www.w3.org/2000/svg">
<path d="M2.86102e-06 12V0.363636H1.40909V10.75H6.81818V12H2.86102e-06ZM8.81818 12V3.27273H10.1591V12H8.81818ZM9.5 1.81818C9.23864 1.81818 9.01326 1.72917 8.82387 1.55114C8.63826 1.37311 8.54546 1.15909 8.54546 0.909091C8.54546 0.659091 8.63826 0.445076 8.82387 0.267045C9.01326 0.089015 9.23864 0 9.5 0C9.76137 0 9.98485 0.089015 10.1705 0.267045C10.3599 0.445076 10.4545 0.659091 10.4545 0.909091C10.4545 1.15909 10.3599 1.37311 10.1705 1.55114C9.98485 1.72917 9.76137 1.81818 9.5 1.81818ZM19.7514 3.27273L16.5242 12H15.1605L11.9332 3.27273H13.3878L15.7969 10.2273H15.8878L18.2969 3.27273H19.7514ZM24.8679 12.1818C24.027 12.1818 23.3016 11.9962 22.6918 11.625C22.0857 11.25 21.6179 10.7273 21.2884 10.0568C20.9626 9.38258 20.7997 8.59848 20.7997 7.70455C20.7997 6.81061 20.9626 6.02273 21.2884 5.34091C21.6179 4.6553 22.0762 4.12121 22.6634 3.73864C23.2543 3.35227 23.9437 3.15909 24.7315 3.15909C25.1861 3.15909 25.6349 3.23485 26.0781 3.38636C26.5213 3.53788 26.9247 3.78409 27.2884 4.125C27.652 4.46212 27.9418 4.90909 28.1577 5.46591C28.3736 6.02273 28.4815 6.70833 28.4815 7.52273V8.09091H21.7543V6.93182H27.1179C27.1179 6.43939 27.0194 6 26.8224 5.61364C26.6293 5.22727 26.3527 4.92235 25.9929 4.69886C25.6368 4.47538 25.2164 4.36364 24.7315 4.36364C24.1974 4.36364 23.7353 4.49621 23.3452 4.76136C22.9588 5.02273 22.6615 5.36364 22.4531 5.78409C22.2448 6.20455 22.1406 6.6553 22.1406 7.13636V7.90909C22.1406 8.56818 22.2543 9.12689 22.4815 9.58523C22.7126 10.0398 23.0327 10.3864 23.4418 10.625C23.8509 10.8598 24.3262 10.9773 24.8679 10.9773C25.2202 10.9773 25.5384 10.928 25.8224 10.8295C26.1103 10.7273 26.3584 10.5758 26.5668 10.375C26.7751 10.1705 26.9361 9.91667 27.0497 9.61364L28.3452 9.97727C28.2088 10.4167 27.9796 10.803 27.6577 11.1364C27.3357 11.4659 26.938 11.7235 26.4645 11.9091C25.991 12.0909 25.4588 12.1818 24.8679 12.1818Z" fill="#7DCFFF"/>
</svg>
