<svg width="99" height="40" viewBox="0 0 99 40" fill="none" xmlns="http://www.w3.org/2000/svg">
<g filter="url(#filter0_d_2041_145)">
<rect x="4" width="91" height="32" rx="16" fill="#1A1B26" shape-rendering="crispEdges"/>
<path d="M23.8907 14.5C23.7891 14.1892 23.6552 13.9106 23.489 13.6644C23.3259 13.4151 23.1305 13.2028 22.9027 13.0273C22.6781 12.8519 22.4226 12.718 22.1364 12.6257C21.8502 12.5334 21.5363 12.4872 21.1946 12.4872C20.6345 12.4872 20.1252 12.6319 19.6666 12.9212C19.208 13.2105 18.8433 13.6367 18.5725 14.1999C18.3017 14.7631 18.1662 15.4541 18.1662 16.2727C18.1662 17.0914 18.3032 17.7823 18.5771 18.3455C18.851 18.9087 19.2219 19.335 19.6897 19.6243C20.1575 19.9136 20.6838 20.0582 21.2685 20.0582C21.8102 20.0582 22.2872 19.9428 22.6996 19.712C23.1151 19.4781 23.4383 19.1488 23.6691 18.7241C23.903 18.2963 24.0199 17.7931 24.0199 17.2145L24.3708 17.2884H21.527V16.2727H25.1279V17.2884C25.1279 18.067 24.9617 18.7441 24.6293 19.3196C24.3 19.8951 23.8445 20.3414 23.2628 20.6584C22.6842 20.9723 22.0195 21.1293 21.2685 21.1293C20.4314 21.1293 19.6958 20.9323 19.0618 20.5384C18.4309 20.1444 17.9385 19.5843 17.5846 18.858C17.2337 18.1316 17.0583 17.2699 17.0583 16.2727C17.0583 15.5249 17.1583 14.8524 17.3584 14.2553C17.5615 13.6552 17.8477 13.1443 18.217 12.7227C18.5863 12.301 19.0234 11.9779 19.5281 11.7532C20.0328 11.5285 20.5883 11.4162 21.1946 11.4162C21.6932 11.4162 22.158 11.4916 22.5888 11.6424C23.0228 11.7901 23.409 12.0009 23.7476 12.2749C24.0892 12.5457 24.3739 12.8704 24.6016 13.2489C24.8294 13.6244 24.9863 14.0414 25.0725 14.5H23.8907ZM29.914 21.1477C29.2308 21.1477 28.6414 20.9969 28.1459 20.6953C27.6535 20.3906 27.2734 19.9659 27.0056 19.4212C26.741 18.8733 26.6086 18.2363 26.6086 17.5099C26.6086 16.7836 26.741 16.1435 27.0056 15.5895C27.2734 15.0324 27.6458 14.5985 28.1228 14.2876C28.6029 13.9737 29.1631 13.8168 29.8032 13.8168C30.1725 13.8168 30.5372 13.8783 30.8973 14.0014C31.2574 14.1245 31.5852 14.3246 31.8806 14.6016C32.1761 14.8755 32.4115 15.2386 32.587 15.6911C32.7624 16.1435 32.8501 16.7005 32.8501 17.3622V17.8239H27.3842V16.8821H31.7421C31.7421 16.482 31.6621 16.125 31.5021 15.8111C31.3451 15.4972 31.1205 15.2494 30.8281 15.0678C30.5388 14.8862 30.1972 14.7955 29.8032 14.7955C29.3693 14.7955 28.9938 14.9032 28.6768 15.1186C28.3629 15.331 28.1213 15.608 27.952 15.9496C27.7827 16.2912 27.6981 16.6574 27.6981 17.0483V17.6761C27.6981 18.2116 27.7904 18.6656 27.9751 19.038C28.1628 19.4073 28.4229 19.6889 28.7553 19.8828C29.0877 20.0736 29.4739 20.169 29.914 20.169C30.2002 20.169 30.4588 20.129 30.6896 20.049C30.9235 19.9659 31.1251 19.8428 31.2943 19.6797C31.4636 19.5135 31.5944 19.3073 31.6867 19.0611L32.7393 19.3565C32.6285 19.7135 32.4423 20.0275 32.1807 20.2983C31.9191 20.5661 31.596 20.7753 31.2112 20.9261C30.8265 21.0739 30.3941 21.1477 29.914 21.1477ZM34.5074 21V13.9091H35.56V15.017H35.6523C35.8 14.6385 36.0385 14.3446 36.3679 14.1353C36.6972 13.9229 37.0926 13.8168 37.5543 13.8168C38.0221 13.8168 38.4114 13.9229 38.7223 14.1353C39.0362 14.3446 39.2809 14.6385 39.4563 15.017H39.5301C39.7117 14.6508 39.9841 14.36 40.3473 14.1445C40.7104 13.926 41.1459 13.8168 41.6537 13.8168C42.2877 13.8168 42.8063 14.0153 43.2095 14.4123C43.6126 14.8062 43.8142 15.4202 43.8142 16.2543V21H42.7247V16.2543C42.7247 15.7311 42.5816 15.3571 42.2954 15.1325C42.0092 14.9078 41.6722 14.7955 41.2844 14.7955C40.7858 14.7955 40.3996 14.9463 40.1257 15.2479C39.8518 15.5464 39.7148 15.925 39.7148 16.3835V21H38.6068V16.1435C38.6068 15.7403 38.476 15.4156 38.2144 15.1694C37.9528 14.9201 37.6158 14.7955 37.2034 14.7955C36.9203 14.7955 36.6556 14.8709 36.4094 15.0217C36.1663 15.1725 35.9693 15.3817 35.8185 15.6495C35.6708 15.9142 35.5969 16.2204 35.5969 16.5682V21H34.5074ZM45.8062 21V13.9091H46.8957V21H45.8062ZM46.3602 12.7273C46.1479 12.7273 45.9647 12.6549 45.8109 12.5103C45.6601 12.3656 45.5847 12.1918 45.5847 11.9886C45.5847 11.7855 45.6601 11.6116 45.8109 11.467C45.9647 11.3223 46.1479 11.25 46.3602 11.25C46.5726 11.25 46.7542 11.3223 46.905 11.467C47.0588 11.6116 47.1358 11.7855 47.1358 11.9886C47.1358 12.1918 47.0588 12.3656 46.905 12.5103C46.7542 12.6549 46.5726 12.7273 46.3602 12.7273ZM49.9807 16.7344V21H48.8912V13.9091H49.9438V15.017H50.0361C50.2023 14.657 50.4546 14.3677 50.7932 14.1491C51.1317 13.9276 51.5688 13.8168 52.1043 13.8168C52.5844 13.8168 53.0045 13.9152 53.3646 14.1122C53.7247 14.3061 54.0047 14.6016 54.2048 14.9986C54.4048 15.3925 54.5048 15.8911 54.5048 16.4943V21H53.4154V16.5682C53.4154 16.0111 53.2707 15.5772 52.9814 15.2663C52.6921 14.9524 52.2951 14.7955 51.7903 14.7955C51.4426 14.7955 51.1317 14.8709 50.8578 15.0217C50.587 15.1725 50.3731 15.3925 50.2161 15.6818C50.0592 15.9711 49.9807 16.322 49.9807 16.7344ZM56.4957 21V13.9091H57.5852V21H56.4957ZM57.0497 12.7273C56.8373 12.7273 56.6542 12.6549 56.5003 12.5103C56.3495 12.3656 56.2741 12.1918 56.2741 11.9886C56.2741 11.7855 56.3495 11.6116 56.5003 11.467C56.6542 11.3223 56.8373 11.25 57.0497 11.25C57.262 11.25 57.4436 11.3223 57.5944 11.467C57.7483 11.6116 57.8252 11.7855 57.8252 11.9886C57.8252 12.1918 57.7483 12.3656 57.5944 12.5103C57.4436 12.6549 57.262 12.7273 57.0497 12.7273ZM63.7724 21H62.5721L66.0437 11.5455H67.2255L70.6971 21H69.4968L66.6716 13.0412H66.5977L63.7724 21ZM64.2156 17.3068H69.0537V18.3224H64.2156V17.3068ZM72.1698 21V11.5455H75.3644C76.1061 11.5455 76.7124 11.6793 77.1833 11.9471C77.6572 12.2118 78.0081 12.5703 78.2358 13.0227C78.4636 13.4751 78.5775 13.9799 78.5775 14.5369C78.5775 15.094 78.4636 15.6003 78.2358 16.0558C78.0112 16.5112 77.6634 16.8744 77.1925 17.1452C76.7216 17.413 76.1184 17.5469 75.3829 17.5469H73.0931V16.5312H75.3459C75.8537 16.5312 76.2615 16.4435 76.5693 16.2681C76.8771 16.0927 77.1002 15.8557 77.2387 15.5572C77.3803 15.2556 77.451 14.9155 77.451 14.5369C77.451 14.1584 77.3803 13.8198 77.2387 13.5213C77.1002 13.2228 76.8755 12.9889 76.5647 12.8196C76.2538 12.6473 75.8414 12.5611 75.3275 12.5611H73.3147V21H72.1698ZM81.5666 11.5455V21H80.4217V11.5455H81.5666Z" fill="#7AA2F7"/>
</g>
<defs>
<filter id="filter0_d_2041_145" x="0" y="0" width="99" height="40" filterUnits="userSpaceOnUse" color-interpolation-filters="sRGB">
<feFlood flood-opacity="0" result="BackgroundImageFix"/>
<feColorMatrix in="SourceAlpha" type="matrix" values="0 0 0 0 0 0 0 0 0 0 0 0 0 0 0 0 0 0 127 0" result="hardAlpha"/>
<feOffset dy="4"/>
<feGaussianBlur stdDeviation="2"/>
<feComposite in2="hardAlpha" operator="out"/>
<feColorMatrix type="matrix" values="0 0 0 0 0 0 0 0 0 0 0 0 0 0 0 0 0 0 0.25 0"/>
<feBlend mode="normal" in2="BackgroundImageFix" result="effect1_dropShadow_2041_145"/>
<feBlend mode="normal" in="SourceGraphic" in2="effect1_dropShadow_2041_145" result="shape"/>
</filter>
</defs>
</svg>
